# xmcd CD database file
#
# Track frame offsets:
#	150
#	10422
#	22490
#	34127
#	48760
#	59895
#	68070
#	85532
#	97467
#	108177
#	117882
#	130960
#
# Disc length: 1843 seconds
#
# Revision: 0
# Processed by: cddbd v1.5.1PL0 Copyright (c) Steve Scherf et al.
# Submitted via: CDex 1.60beta1
#
DISCID=a907310c
DTITLE=Various Artist - The Big Band Era - Disc 14
DYEAR=0
DGENRE=Jazz
TTITLE0=It's Only A Paper Moon
TTITLE1=Just About This Time Last Night
TTITLE2=Sometimes I'm Happy
TTITLE3=Glen Island Hop
TTITLE4=Laura
TTITLE5=Shine On Harvest Moon
TTITLE6=Should I
TTITLE7=Hour Of Parting
TTITLE8=Someday Sweetheart
TTITLE9=You Are My Sunshine
TTITLE10=Whispers In The Dark
TTITLE11=Zing Went The Strings Of My Heart
EXTD=YEAR: 0
EXTT0=
EXTT1=
EXTT2=
EXTT3=
EXTT4=
EXTT5=
EXTT6=
EXTT7=
EXTT8=
EXTT9=
EXTT10=
EXTT11=
PLAYORDER=
